<svg width="1728" height="900" viewBox="0 0 1728 900" fill="none" xmlns="http://www.w3.org/2000/svg">
<rect width="1728" height="900" fill="url(#paint0_linear_1179_236)"/>
<path d="M96.5714 593.501V598.499L92.5731 601L88.5714 598.499V593.501L92.5731 591L96.5714 593.501Z" fill="white" fill-opacity="0.04"/>
<path d="M173.714 593.501V598.499L169.716 601L165.714 598.499V593.501L169.716 591L173.714 593.501Z" fill="white" fill-opacity="0.04"/>
<path d="M250.857 593.501V598.499L246.859 601L242.857 598.499V593.501L246.859 591L250.857 593.501Z" fill="white" fill-opacity="0.04"/>
<path d="M328 593.501V598.499L324.002 601L320 598.499V593.501L324.002 591L328 593.501Z" fill="white" fill-opacity="0.04"/>
<path d="M405.143 593.751V598.249L401.144 600.5L397.143 598.249V593.751L401.144 591.5L405.143 593.751Z" fill="white" fill-opacity="0.04"/>
<path d="M482.286 593.751V598.249L478.287 600.5L474.286 598.249V593.751L478.287 591.5L482.286 593.751Z" fill="white" fill-opacity="0.04"/>
<path d="M559.429 593.751V598.249L555.43 600.5L551.429 598.249V593.751L555.43 591.5L559.429 593.751Z" fill="white" fill-opacity="0.04"/>
<path d="M636.571 593.751V598.249L632.573 600.5L628.571 598.249V593.751L632.573 591.5L636.571 593.751Z" fill="white" fill-opacity="0.04"/>
<path d="M713.714 593.751V598.249L709.716 600.5L705.714 598.249V593.751L709.716 591.5L713.714 593.751Z" fill="white" fill-opacity="0.04"/>
<path d="M790.857 593.751V598.249L786.859 600.5L782.857 598.249V593.751L786.859 591.5L790.857 593.751Z" fill="white" fill-opacity="0.04"/>
<path d="M868 593.751V598.249L864.002 600.5L860 598.249V593.751L864.002 591.5L868 593.751Z" fill="white" fill-opacity="0.04"/>
<path d="M945.143 593.751V598.249L941.145 600.5L937.143 598.249V593.751L941.145 591.5L945.143 593.751Z" fill="white" fill-opacity="0.04"/>
<path d="M1022.29 593.751V598.249L1018.29 600.5L1014.29 598.249V593.751L1018.29 591.5L1022.29 593.751Z" fill="white" fill-opacity="0.04"/>
<path d="M1099.43 593.751V598.249L1095.43 600.5L1091.43 598.249V593.751L1095.43 591.5L1099.43 593.751Z" fill="white" fill-opacity="0.04"/>
<path d="M1176.57 593.751V598.249L1172.57 600.5L1168.57 598.249V593.751L1172.57 591.5L1176.57 593.751Z" fill="white" fill-opacity="0.04"/>
<path d="M1253.71 593.751V598.249L1249.72 600.5L1245.71 598.249V593.751L1249.72 591.5L1253.71 593.751Z" fill="white" fill-opacity="0.04"/>
<path d="M1330.86 593.751V598.249L1326.86 600.5L1322.86 598.249V593.751L1326.86 591.5L1330.86 593.751Z" fill="white" fill-opacity="0.04"/>
<path d="M1408 593.751V598.249L1404 600.5L1400 598.249V593.751L1404 591.5L1408 593.751Z" fill="white" fill-opacity="0.04"/>
<path d="M1485.14 593.501V598.499L1481.14 601L1477.14 598.499V593.501L1481.14 591L1485.14 593.501Z" fill="white" fill-opacity="0.04"/>
<path d="M1562.29 593.501V598.499L1558.29 601L1554.29 598.499V593.501L1558.29 591L1562.29 593.501Z" fill="white" fill-opacity="0.04"/>
<path d="M1639.43 593.501V598.499L1635.43 601L1631.43 598.499V593.501L1635.43 591L1639.43 593.501Z" fill="white" fill-opacity="0.04"/>
<path d="M96.5714 673.501V678.499L92.5731 681L88.5714 678.499V673.501L92.5731 671L96.5714 673.501Z" fill="white" fill-opacity="0.04"/>
<path d="M173.714 673.501V678.499L169.716 681L165.714 678.499V673.501L169.716 671L173.714 673.501Z" fill="white" fill-opacity="0.04"/>
<path d="M250.857 673.501V678.499L246.859 681L242.857 678.499V673.501L246.859 671L250.857 673.501Z" fill="white" fill-opacity="0.04"/>
<path d="M328 673.501V678.499L324.002 681L320 678.499V673.501L324.002 671L328 673.501Z" fill="white" fill-opacity="0.05"/>
<path d="M405.143 673.751V678.249L401.144 680.5L397.143 678.249V673.751L401.144 671.5L405.143 673.751Z" fill="white" fill-opacity="0.06"/>
<path d="M483.286 673.001V678.999L478.288 682L473.286 678.999V673.001L478.288 670L483.286 673.001Z" fill="white" fill-opacity="0.06"/>
<path d="M560.429 673.501V678.499L555.431 681L550.429 678.499V673.501L555.431 671L560.429 673.501Z" fill="white" fill-opacity="0.06"/>
<path d="M637.571 673.001V678.999L632.573 682L627.571 678.999V673.001L632.573 670L637.571 673.001Z" fill="white" fill-opacity="0.06"/>
<path d="M714.714 673.001V678.999L709.716 682L704.714 678.999V673.001L709.716 670L714.714 673.001Z" fill="white" fill-opacity="0.06"/>
<path d="M792.857 672.501V679.499L786.86 683L780.857 679.499V672.501L786.86 669L792.857 672.501Z" fill="white" fill-opacity="0.06"/>
<path d="M869 673.001V678.999L864.002 682L859 678.999V673.001L864.002 670L869 673.001Z" fill="white" fill-opacity="0.06"/>
<path d="M946.143 673.001V678.999L941.145 682L936.143 678.999V673.001L941.145 670L946.143 673.001Z" fill="white" fill-opacity="0.06"/>
<path d="M1023.29 673.001V678.999L1018.29 682L1013.29 678.999V673.001L1018.29 670L1023.29 673.001Z" fill="white" fill-opacity="0.06"/>
<path d="M1100.43 673.251V678.749L1095.43 681.5L1090.43 678.749V673.251L1095.43 670.5L1100.43 673.251Z" fill="white" fill-opacity="0.06"/>
<path d="M1177.57 673.251V678.749L1172.57 681.5L1167.57 678.749V673.251L1172.57 670.5L1177.57 673.251Z" fill="white" fill-opacity="0.06"/>
<path d="M1254.71 673.001V678.999L1249.72 682L1244.71 678.999V673.001L1249.72 670L1254.71 673.001Z" fill="white" fill-opacity="0.06"/>
<path d="M1330.86 673.751V678.249L1326.86 680.5L1322.86 678.249V673.751L1326.86 671.5L1330.86 673.751Z" fill="white" fill-opacity="0.06"/>
<path d="M1408 673.501V678.499L1404 681L1400 678.499V673.501L1404 671L1408 673.501Z" fill="white" fill-opacity="0.05"/>
<path d="M1485.14 673.501V678.499L1481.14 681L1477.14 678.499V673.501L1481.14 671L1485.14 673.501Z" fill="white" fill-opacity="0.04"/>
<path d="M1562.29 673.501V678.499L1558.29 681L1554.29 678.499V673.501L1558.29 671L1562.29 673.501Z" fill="white" fill-opacity="0.04"/>
<path d="M1639.43 673.501V678.499L1635.43 681L1631.43 678.499V673.501L1635.43 671L1639.43 673.501Z" fill="white" fill-opacity="0.04"/>
<path d="M96.5714 753.501V758.499L92.5731 761L88.5714 758.499V753.501L92.5731 751L96.5714 753.501Z" fill="white" fill-opacity="0.04"/>
<path d="M173.714 753.501V758.499L169.716 761L165.714 758.499V753.501L169.716 751L173.714 753.501Z" fill="white" fill-opacity="0.04"/>
<path d="M250.857 753.501V758.499L246.859 761L242.857 758.499V753.501L246.859 751L250.857 753.501Z" fill="white" fill-opacity="0.04"/>
<path d="M328 753.501V758.499L324.002 761L320 758.499V753.501L324.002 751L328 753.501Z" fill="white" fill-opacity="0.05"/>
<path d="M405.143 753.751V758.249L401.144 760.5L397.143 758.249V753.751L401.144 751.5L405.143 753.751Z" fill="white" fill-opacity="0.06"/>
<path d="M483.286 753.001V758.999L478.288 762L473.286 758.999V753.001L478.288 750L483.286 753.001Z" fill="white" fill-opacity="0.06"/>
<path d="M560.429 753.501V758.499L555.431 761L550.429 758.499V753.501L555.431 751L560.429 753.501Z" fill="white" fill-opacity="0.08"/>
<path d="M637.571 753.001V758.999L632.573 762L627.571 758.999V753.001L632.573 750L637.571 753.001Z" fill="white" fill-opacity="0.08"/>
<path d="M715.714 752.751V759.249L709.717 762.5L703.714 759.249V752.751L709.717 749.5L715.714 752.751Z" fill="white" fill-opacity="0.08"/>
<path d="M794.857 751.502V760.498L786.861 765L778.857 760.498V751.502L786.861 747L794.857 751.502Z" fill="white" fill-opacity="0.08"/>
<path d="M874 750.252V761.748L864.004 767.5L854 761.748V750.252L864.004 744.5L874 750.252Z" fill="white" fill-opacity="0.08"/>
<path d="M949.143 751.502V760.498L941.146 765L933.143 760.498V751.502L941.146 747L949.143 751.502Z" fill="white" fill-opacity="0.08"/>
<path d="M1024.29 752.751V759.249L1018.29 762.5L1012.29 759.249V752.751L1018.29 749.5L1024.29 752.751Z" fill="white" fill-opacity="0.08"/>
<path d="M1100.43 753.251V758.749L1095.43 761.5L1090.43 758.749V753.251L1095.43 750.5L1100.43 753.251Z" fill="white" fill-opacity="0.08"/>
<path d="M1177.57 753.251V758.749L1172.57 761.5L1167.57 758.749V753.251L1172.57 750.5L1177.57 753.251Z" fill="white" fill-opacity="0.06"/>
<path d="M1254.71 753.001V758.999L1249.72 762L1244.71 758.999V753.001L1249.72 750L1254.71 753.001Z" fill="white" fill-opacity="0.06"/>
<path d="M1330.86 753.751V758.249L1326.86 760.5L1322.86 758.249V753.751L1326.86 751.5L1330.86 753.751Z" fill="white" fill-opacity="0.06"/>
<path d="M1408 753.501V758.499L1404 761L1400 758.499V753.501L1404 751L1408 753.501Z" fill="white" fill-opacity="0.05"/>
<path d="M1485.14 753.501V758.499L1481.14 761L1477.14 758.499V753.501L1481.14 751L1485.14 753.501Z" fill="white" fill-opacity="0.04"/>
<path d="M1562.29 753.501V758.499L1558.29 761L1554.29 758.499V753.501L1558.29 751L1562.29 753.501Z" fill="white" fill-opacity="0.04"/>
<path d="M1639.43 753.501V758.499L1635.43 761L1631.43 758.499V753.501L1635.43 751L1639.43 753.501Z" fill="white" fill-opacity="0.04"/>
<path d="M96.5714 833.751V838.249L92.5731 840.5L88.5714 838.249V833.751L92.5731 831.5L96.5714 833.751Z" fill="white" fill-opacity="0.04"/>
<path d="M173.714 833.751V838.249L169.716 840.5L165.714 838.249V833.751L169.716 831.5L173.714 833.751Z" fill="white" fill-opacity="0.04"/>
<path d="M250.857 833.751V838.249L246.859 840.5L242.857 838.249V833.751L246.859 831.5L250.857 833.751Z" fill="white" fill-opacity="0.04"/>
<path d="M329 833.001V838.999L324.002 842L319 838.999V833.001L324.002 830L329 833.001Z" fill="white" fill-opacity="0.05"/>
<path d="M406.143 833.001V838.999L401.145 842L396.143 838.999V833.001L401.145 830L406.143 833.001Z" fill="white" fill-opacity="0.06"/>
<path d="M483.286 833.001V838.999L478.288 842L473.286 838.999V833.001L478.288 830L483.286 833.001Z" fill="white" fill-opacity="0.06"/>
<path d="M560.429 833.251V838.749L555.431 841.5L550.429 838.749V833.251L555.431 830.5L560.429 833.251Z" fill="white" fill-opacity="0.1"/>
<path d="M638.571 832.501V839.499L632.574 843L626.571 839.499V832.501L632.574 829L638.571 832.501Z" fill="white" fill-opacity="0.1"/>
<path d="M717.714 831.502V840.498L709.718 845L701.714 840.498V831.502L709.718 827L717.714 831.502Z" fill="white" fill-opacity="0.1"/>
<path d="M796.857 830.252V841.748L786.861 847.5L776.857 841.748V830.252L786.861 824.5L796.857 830.252Z" fill="white" fill-opacity="0.1"/>
<path d="M877 828.253V843.747L864.005 851.5L851 843.747V828.253L864.005 820.5L877 828.253Z" fill="white" fill-opacity="0.1"/>
<path d="M951.143 830.252V841.748L941.147 847.5L931.143 841.748V830.252L941.147 824.5L951.143 830.252Z" fill="white" fill-opacity="0.1"/>
<path d="M1026.29 831.502V840.498L1018.29 845L1010.29 840.498V831.502L1018.29 827L1026.29 831.502Z" fill="white" fill-opacity="0.1"/>
<path d="M1101.43 832.501V839.499L1095.43 843L1089.43 839.499V832.501L1095.43 829L1101.43 832.501Z" fill="white" fill-opacity="0.1"/>
<path d="M1177.57 833.251V838.749L1172.57 841.5L1167.57 838.749V833.251L1172.57 830.5L1177.57 833.251Z" fill="white" fill-opacity="0.06"/>
<path d="M1254.71 833.001V838.999L1249.72 842L1244.71 838.999V833.001L1249.72 830L1254.71 833.001Z" fill="white" fill-opacity="0.06"/>
<path d="M1331.86 833.001V838.999L1326.86 842L1321.86 838.999V833.001L1326.86 830L1331.86 833.001Z" fill="white" fill-opacity="0.06"/>
<path d="M1408.93 833.153V838.847L1404 841.696L1399.07 838.847V833.153L1404 830.304L1408.93 833.153Z" fill="white" fill-opacity="0.05"/>
<path d="M1485.14 833.751V838.249L1481.14 840.5L1477.14 838.249V833.751L1481.14 831.5L1485.14 833.751Z" fill="white" fill-opacity="0.04"/>
<path d="M1562.29 833.751V838.249L1558.29 840.5L1554.29 838.249V833.751L1558.29 831.5L1562.29 833.751Z" fill="white" fill-opacity="0.04"/>
<path d="M1639.43 833.751V838.249L1635.43 840.5L1631.43 838.249V833.751L1635.43 831.5L1639.43 833.751Z" fill="white" fill-opacity="0.04"/>
<defs>
<linearGradient id="paint0_linear_1179_236" x1="864" y1="0" x2="864" y2="900" gradientUnits="userSpaceOnUse">
<stop offset="0.259615" stop-color="#1A1A1A"/>
<stop offset="0.625" stop-color="#0D0D26"/>
<stop offset="1" stop-color="#000033"/>
</linearGradient>
</defs>
</svg>
